#tb 0: 1/25
0,          0,          0,        1,  8294400, 0xaa37ceea
0,          1,          1,        1,  8294400, 0xa7546d5c
0,          2,          2,        1,  8294400, 0xf2abaace
0,          3,          3,        1,  8294400, 0x36f4d47e
0,          4,          4,        1,  8294400, 0x1cdf917d
0,          5,          5,        1,  8294400, 0xa9377ba3
0,          6,          6,        1,  8294400, 0x21c9db51
0,          7,          7,        1,  8294400, 0x07d7936e
0,          8,          8,        1,  8294400, 0x7878ab94
0,          9,          9,        1,  8294400, 0x77e40921
